:SAMPLES-PER-SECOND 30
:FULLY-SPECIFIED
:DEGREES
612
root  -6.41878 39.4454 11.9066 -129.371 -82.7301 123.793
RightUpLeg  5.13144 10.6093 -7.53053
RightLeg  47.6468 -10.8689 -12.8165
RightFoot  29.9085 -2.27062 6.59726
RightToes  -5.8209e-011 0 -3.6325e-017
Spine  -4.89004 16.9273 44.328
Spine1  2.21254 17.8748 -17.2137
HEad  11.6509 -52.0896 -2.64339
LeftShoulder1  6.95888 -15.1336 -31.3097
LeftArm  -28.4888 -36.9101 -45.222
LeftForeArm  6.74246 -46.1009 -11.1781
LeftHand  -0.246645 0.021 5.37786
RightShoulder  4.79123 14.3427 20.4411
RightArm  131.4 60.0426 139.062
RightForeArm  22.6062 22.1869 4.66251
RightHand  -0.24729 -0.0210522 -5.37781
LeftUpLeg  -5.32718 -3.83007 -10.9644
LeftLeg  29.639 -62.7302 -28.5987
LeftFoot  6.14102 0.560847 -3.8904
LeftToes  -7.45818e-011 -3.37383e-011 1.08613e-011
613
root  -6.42903 39.4695 11.8384 -121.926 -83.374 116.542
RightUpLeg  5.05516 11.1227 -6.99693
RightLeg  47.5073 -10.0207 -11.8257
RightFoot  31.084 -2.57268 7.19669
RightToes  -5.8209e-011 0 -3.6325e-017
Spine  -5.44795 17.405 43.9886
Spine1  2.10463 18.1393 -17.336
HEad  11.9379 -52.4917 -2.98067
LeftShoulder1  6.9507 -15.0755 -31.3835
LeftArm  -31.0249 -36.8652 -42.7779
LeftForeArm  10.5754 -48.4365 -11.886
LeftHand  -0.246645 0.021 5.37786
RightShoulder  4.61098 14.1364 19.6839
RightArm  132.008 59.537 141.275
RightForeArm  22.7059 23.5047 3.94511
RightHand  -0.24729 -0.0210522 -5.37781
LeftUpLeg  -5.33235 -3.92475 -10.815
LeftLeg  30.0759 -63.7555 -29.2062
LeftFoot  6.24977 0.641256 -4.3896
LeftToes  -7.45818e-011 -3.37383e-011 1.08613e-011
614
root  -6.44211 39.4802 11.7703 -112.028 -83.8903 106.828
RightUpLeg  5.04513 11.7979 -6.44302
RightLeg  47.4025 -9.07537 -10.74
RightFoot  32.0576 -3.04929 8.23329
RightToes  -5.8209e-011 0 -3.6325e-017
Spine  -5.96838 17.8064 43.5915
Spine1  1.84152 18.3556 -17.6542
HEad  12.2909 -52.9333 -3.1587
LeftShoulder1  6.85921 -14.9386 -31.1645
LeftArm  -33.7293 -36.8266 -40.4573
LeftForeArm  14.2674 -50.7957 -12.6912
LeftHand  -0.246645 0.021 5.37786
RightShoulder  4.45732 13.9163 19.0912
RightArm  131.327 59.0628 143.59
RightForeArm  24.781 24.7648 3.97627
RightHand  -0.24729 -0.0210522 -5.37781
LeftUpLeg  -5.41031 -4.17173 -10.7503
LeftLeg  30.8384 -64.6599 -30.0774
LeftFoot  6.42554 0.700389 -4.73054
LeftToes  -7.45818e-011 -3.37383e-011 1.08613e-011
615
root  -6.45495 39.4768 11.7049 -99.8235 -84.1775 94.7776
RightUpLeg  5.06201 12.4296 -5.96281
RightLeg  47.3172 -7.96831 -9.4774
RightFoot  32.9405 -3.58144 9.37255
RightToes  -5.8209e-011 0 -3.6325e-017
Spine  -6.42443 18.1452 43.1298
Spine1  1.48586 18.5259 -18.01
HEad  12.6924 -53.4453 -3.40668
LeftShoulder1  6.70281 -14.7055 -30.7798
LeftArm  -36.4231 -36.8387 -38.2755
LeftForeArm  18.1014 -53.1628 -13.5831
LeftHand  -0.246645 0.021 5.37786
RightShoulder  4.26901 13.6413 18.35
RightArm  130.715 58.523 146.121
RightForeArm  27.1723 25.9519 4.12056
RightHand  -0.24729 -0.0210522 -5.37781
LeftUpLeg  -5.5456 -4.43911 -10.7553
LeftLeg  32.0624 -65.4941 -31.3822
LeftFoot  6.6664 0.738653 -4.9168
LeftToes  -7.45818e-011 -3.37383e-011 1.08613e-011
616
root  -6.46505 39.471 11.6451 -87.5296 -84.2135 82.592
RightUpLeg  5.02422 12.8682 -5.56328
RightLeg  47.2238 -6.79613 -8.13348
RightFoot  34.0175 -4.04343 10.2471
RightToes  -5.8209e-011 0 -3.6325e-017
Spine  -6.71797 18.5044 42.7161
Spine1  1.07402 18.7469 -18.3061
HEad  13.1332 -53.9631 -3.89437
LeftShoulder1  6.50472 -14.3989 -30.3005
LeftArm  -38.8998 -36.9082 -36.1858
LeftForeArm  22.1938 -55.4904 -14.545
LeftHand  -0.246645 0.021 5.37786
RightShoulder  4.05548 13.3196 17.4937
RightArm  130.228 57.9821 148.661
RightForeArm  29.3497 27.1325 4.26127
RightHand  -0.24729 -0.0210522 -5.37781
LeftUpLeg  -5.65972 -4.5142 -10.724
LeftLeg  33.616 -66.3802 -33.044
LeftFoot  6.92368 0.783673 -5.13578
LeftToes  -7.45818e-011 -3.37383e-011 1.08613e-011
617
root  -6.47248 39.4709 11.5913 -76.7355 -84.0732 71.8745
RightUpLeg  4.88744 13.1792 -5.18984
RightLeg  47.1491 -5.74704 -6.92918
RightFoot  35.3779 -4.49718 10.9847
RightToes  -5.8209e-011 0 -3.6325e-017
Spine  -6.91857 18.9227 42.4134
Spine1  0.723545 19.0552 -18.5566
HEad  13.4322 -54.3781 -4.35425
LeftShoulder1  6.28814 -14.0612 -29.7604
LeftArm  -41.2593 -37.0121 -33.9556
LeftForeArm  26.1998 -57.7547 -15.6102
LeftHand  -0.246645 0.021 5.37786
RightShoulder  3.87795 13.0298 16.7885
RightArm  129.714 57.4701 150.968
RightForeArm  31.3134 28.2975 4.41362
RightHand  -0.24729 -0.0210522 -5.37781
LeftUpLeg  -5.7149 -4.37486 -10.6085
LeftLeg  35.2551 -67.3464 -34.8292
LeftFoot  7.14019 0.855499 -5.52372
LeftToes  -7.45818e-011 -3.37383e-011 1.08613e-011
618
root  -6.48029 39.4721 11.5445 -67.1088 -83.7497 62.3276
RightUpLeg  4.69152 13.4922 -4.83529
RightLeg  47.116 -4.8773 -5.93486
RightFoot  36.8222 -5.04881 11.8689
RightToes  -5.8209e-011 0 -3.6325e-017
Spine  -7.15025 19.3483 42.1439
Spine1  0.442894 19.382 -18.8395
HEad  13.5563 -54.6835 -4.55857
LeftShoulder1  6.05764 -13.7125 -29.1371
LeftArm  -43.6835 -37.0732 -31.4916
LeftForeArm  29.865 -59.9385 -16.8146
LeftHand  -0.246645 0.021 5.37786
RightShoulder  3.7447 12.8021 16.256
RightArm  129.183 56.9469 153.081
RightForeArm  33.0639 29.3805 4.56298
RightHand  -0.24729 -0.0210522 -5.37781
LeftUpLeg  -5.74806 -4.20685 -10.4913
LeftLeg  36.8562 -68.3113 -36.5862
LeftFoot  7.30031 0.945171 -6.027
LeftToes  -7.45818e-011 -3.37383e-011 1.08613e-011
619
root  -6.49209 39.4687 11.5063 -58.3648 -83.179 53.6896
RightUpLeg  4.51546 13.8347 -4.53525
RightLeg  47.0719 -4.02412 -4.9552
RightFoot  38.1247 -5.65707 12.8517
RightToes  -5.8209e-011 0 -3.6325e-017
Spine  -7.40225 19.7129 41.797
Spine1  0.0736659 19.6426 -19.1679
HEad  13.7799 -54.9408 -4.77174
LeftShoulder1  5.79133 -13.3159 -28.3678
LeftArm  -46.1221 -36.9685 -29.0275
LeftForeArm  33.454 -62.0879 -18.1987
LeftHand  -0.246645 0.021 5.37786
RightShoulder  3.60249 12.5858 15.6285
RightArm  128.566 56.4059 155.154
RightForeArm  34.6303 30.4652 4.72661
RightHand  -0.24729 -0.0210522 -5.37781
LeftUpLeg  -5.80271 -4.19246 -10.4697
LeftLeg  38.4015 -69.1797 -38.264
LeftFoot  7.41477 1.0343 -6.53241
LeftToes  -7.45818e-011 -3.37383e-011 1.08613e-011
620
root  -6.50661 39.4624 11.4751 -50.9958 -82.4215 46.4531
RightUpLeg  4.40085 14.1851 -4.26372
RightLeg  46.9487 -3.06024 -3.83754
RightFoot  39.2007 -6.23686 13.7784
RightToes  -5.8209e-011 0 -3.6325e-017
Spine  -7.64814 20.0423 41.3739
Spine1  -0.373069 19.8562 -19.4757
HEad  14.2128 -55.2233 -5.23721
LeftShoulder1  5.47609 -12.8312 -27.436
LeftArm  -48.427 -36.7192 -26.8259
LeftForeArm  37.3139 -64.296 -19.8637
LeftHand  -0.246645 0.021 5.37786
RightShoulder  3.43358 12.3293 14.8587
RightArm  127.749 55.8807 157.133
RightForeArm  36.1949 31.7246 4.93564
RightHand  -0.24729 -0.0210522 -5.37781
LeftUpLeg  -5.88954 -4.33197 -10.5216
LeftLeg  39.8951 -69.9198 -39.8526
LeftFoot  7.48559 1.11558 -6.99912
LeftToes  -7.45818e-011 -3.37383e-011 1.08613e-011
621
root  -6.51666 39.4573 11.4453 -45.2141 -81.6366 40.8227
RightUpLeg  4.3219 14.5707 -3.93746
RightLeg  46.759 -2.10022 -2.72299
RightFoot  40.0716 -6.80268 14.6915
RightToes  -5.8209e-011 0 -3.6325e-017
Spine  -7.95142 20.4221 40.973
Spine1  -0.652099 20.1172 -19.7191
HEad  14.5682 -55.5879 -5.71946
LeftShoulder1  5.1495 -12.2974 -26.4731
LeftArm  -50.6363 -36.4959 -24.8006
LeftForeArm  41.4541 -66.5539 -21.9057
LeftHand  -0.246645 0.021 5.37786
RightShoulder  3.27319 12.0336 14.1802
RightArm  126.771 55.37 158.849
RightForeArm  37.8603 33.1577 5.18717
RightHand  -0.24729 -0.0210522 -5.37781
LeftUpLeg  -6.01851 -4.46529 -10.5472
LeftLeg  41.443 -70.5634 -41.4751
LeftFoot  7.52298 1.18512 -7.40369
LeftToes  -7.45818e-011 -3.37383e-011 1.08613e-011
